<?xml version="1.0" encoding="UTF-8"?><svg xmlns="http://www.w3.org/2000/svg" xmlns:xlink="http://www.w3.org/1999/xlink" contentScriptType="text/ecmascript" width="375pt" zoomAndPan="magnify" contentStyleType="text/css" viewBox="0 0 375 374.999991" height="374.999991pt" preserveAspectRatio="xMidYMid meet" version="1.2"><defs><clipPath xml:id="clip1" id="clip1"><path d="M 64 93 L 298 93 L 298 371.25 L 64 371.25 Z M 64 93 "/></clipPath><clipPath xml:id="clip2" id="clip2"><path d="M 64 93 L 298 93 L 298 371.25 L 64 371.25 Z M 64 93 "/></clipPath></defs><g xml:id="surface1" id="surface1"><path style=" stroke:none;fill-rule:nonzero;fill:rgb(100%,59.999084%,0%);fill-opacity:1;" d="M 51.796875 68.527344 C 203.75 -3.699219 298.054688 56.730469 358.421875 93.433594 C 362.15625 95.746094 368.507812 92.890625 362.996094 86.570312 C 342.886719 62.21875 276.976562 3.519531 190.945312 3.519531 C 104.859375 3.519531 53.644531 50.433594 47.234375 58.617188 C 40.871094 66.730469 45.367188 71.207031 51.796875 68.527344 Z M 9.121094 92.0625 C 13.203125 97.371094 33.933594 98.359375 46.980469 96.757812 C 60.050781 95.203125 79.664062 87.226562 77.957031 82.4375 C 77.082031 80.644531 75.296875 81.449219 66.320312 82.257812 C 57.320312 83.152344 32.101562 86.332031 26.847656 79.472656 C 21.566406 72.5625 34.890625 39.660156 37.324219 34.351562 C 39.675781 29.046875 36.425781 27.675781 32.007812 31.210938 C 27.65625 34.742188 19.769531 43.894531 14.480469 56.84375 C 9.226562 69.863281 6.019531 88.023438 9.121094 92.0625 Z M 9.121094 92.0625 "/><g clip-rule="nonzero" clip-path="url(#clip1)"><path style=" stroke:none;fill-rule:evenodd;fill:rgb(0%,0%,0%);fill-opacity:1;" d="M 153.96875 215.898438 C 153.96875 196.945312 153.488281 181.144531 163.082031 164.3125 C 170.820312 150.628906 183.082031 142.214844 196.785156 142.214844 C 215.484375 142.214844 226.378906 156.445312 226.378906 177.449219 C 226.378906 218.910156 189.179688 226.433594 153.96875 226.433594 Z M 104.855469 97.335938 C 108.074219 94.464844 112.730469 94.257812 116.363281 96.171875 C 132.527344 109.582031 135.40625 115.808594 144.3125 128.601562 C 171.027344 101.371094 189.933594 93.230469 224.59375 93.230469 C 265.558594 93.230469 297.484375 118.476562 297.484375 169.035156 C 297.484375 208.507812 276.039062 235.394531 245.558594 248.53125 C 219.117188 260.160156 182.191406 262.214844 153.96875 265.429688 L 153.96875 271.722656 C 153.96875 283.285156 153.078125 296.96875 159.859375 306.957031 C 165.820312 315.917969 177.191406 319.613281 187.195312 319.613281 C 205.757812 319.613281 222.335938 310.105469 226.378906 290.402344 C 227.199219 286.019531 230.417969 281.710938 234.800781 281.507812 L 282.070312 286.566406 C 286.042969 287.457031 290.425781 290.671875 289.332031 296.761719 C 278.4375 353.957031 226.722656 371.199219 180.414062 371.199219 C 156.710938 371.199219 125.75 364.902344 107.046875 346.976562 C 83.34375 324.878906 85.605469 295.394531 85.605469 263.308594 L 85.605469 187.503906 C 85.605469 164.722656 76.152344 154.734375 67.246094 142.421875 C 64.097656 138.042969 63.410156 132.773438 67.382812 129.492188 C 77.316406 121.214844 94.992188 105.820312 104.71875 97.199219 L 104.855469 97.335938 "/></g><path style=" stroke:none;fill-rule:nonzero;fill:rgb(100%,59.999084%,0%);fill-opacity:1;" d="M 51.796875 68.527344 C 203.75 -3.699219 298.054688 56.730469 358.421875 93.433594 C 362.15625 95.746094 368.507812 92.890625 362.996094 86.570312 C 342.886719 62.21875 276.976562 3.519531 190.945312 3.519531 C 104.859375 3.519531 53.644531 50.433594 47.234375 58.617188 C 40.871094 66.730469 45.367188 71.207031 51.796875 68.527344 Z M 9.121094 92.0625 C 13.203125 97.371094 33.933594 98.359375 46.980469 96.757812 C 60.050781 95.203125 79.664062 87.226562 77.957031 82.4375 C 77.082031 80.644531 75.296875 81.449219 66.320312 82.257812 C 57.320312 83.152344 32.101562 86.332031 26.847656 79.472656 C 21.566406 72.5625 34.890625 39.660156 37.324219 34.351562 C 39.675781 29.046875 36.425781 27.675781 32.007812 31.210938 C 27.65625 34.742188 19.769531 43.894531 14.480469 56.84375 C 9.226562 69.863281 6.019531 88.023438 9.121094 92.0625 Z M 9.121094 92.0625 "/><g clip-rule="nonzero" clip-path="url(#clip2)"><path style=" stroke:none;fill-rule:evenodd;fill:rgb(0%,0%,0%);fill-opacity:1;" d="M 153.96875 215.898438 C 153.96875 196.945312 153.488281 181.144531 163.082031 164.3125 C 170.820312 150.628906 183.082031 142.214844 196.785156 142.214844 C 215.484375 142.214844 226.378906 156.445312 226.378906 177.449219 C 226.378906 218.910156 189.179688 226.433594 153.96875 226.433594 Z M 104.855469 97.335938 C 108.074219 94.464844 112.730469 94.257812 116.363281 96.171875 C 132.527344 109.582031 135.40625 115.808594 144.3125 128.601562 C 171.027344 101.371094 189.933594 93.230469 224.59375 93.230469 C 265.558594 93.230469 297.484375 118.476562 297.484375 169.035156 C 297.484375 208.507812 276.039062 235.394531 245.558594 248.53125 C 219.117188 260.160156 182.191406 262.214844 153.96875 265.429688 L 153.96875 271.722656 C 153.96875 283.285156 153.078125 296.96875 159.859375 306.957031 C 165.820312 315.917969 177.191406 319.613281 187.195312 319.613281 C 205.757812 319.613281 222.335938 310.105469 226.378906 290.402344 C 227.199219 286.019531 230.417969 281.710938 234.800781 281.507812 L 282.070312 286.566406 C 286.042969 287.457031 290.425781 290.671875 289.332031 296.761719 C 278.4375 353.957031 226.722656 371.199219 180.414062 371.199219 C 156.710938 371.199219 125.75 364.902344 107.046875 346.976562 C 83.34375 324.878906 85.605469 295.394531 85.605469 263.308594 L 85.605469 187.503906 C 85.605469 164.722656 76.152344 154.734375 67.246094 142.421875 C 64.097656 138.042969 63.410156 132.773438 67.382812 129.492188 C 77.316406 121.214844 94.992188 105.820312 104.71875 97.199219 L 104.855469 97.335938 "/></g></g></svg>